# Blender v2.79 (sub 0) OBJ File: ''
# www.blender.org
o Cube.001
v 0.500000 -0.750000 0.500000
v -0.500000 -0.750000 -0.500000
v 0.500000 -0.750000 -0.500000
v -0.248739 0.042762 -0.409408
v 0.282575 0.195360 0.588471
v 0.091107 0.178941 -0.374464
v -0.500000 -0.750000 0.500000
v -0.310349 0.232448 0.475542
vt 0.000100 0.999900
vt 0.999900 0.000100
vt 0.999900 0.999900
vt 0.000100 0.999900
vt 0.999899 0.000100
vt 0.999900 0.999899
vt 0.000100 0.000100
vt 0.999900 0.000100
vt 0.999900 0.999900
vt 0.000100 0.000100
vt 0.999900 0.000100
vt 0.000100 0.999900
vt 0.999900 0.000100
vt 0.999900 0.999900
vt 0.000100 0.000100
vt 0.999900 0.000100
vt 0.000100 0.000100
vt 0.000100 0.999900
vt 0.000100 0.999900
vt 0.000100 0.999900
vn 0.0000 -1.0000 -0.0000
vn -0.2109 0.9768 -0.0371
vn -0.0233 0.9900 -0.1390
vn -0.3765 0.9245 0.0591
vn 0.9412 0.3238 -0.0962
vn 0.9411 0.3246 -0.0952
vn 0.9153 0.4029 0.0000
vn -0.0935 -0.0158 0.9955
vn -0.0675 -0.0374 0.9970
vn 0.0000 -0.0932 0.9956
vn -0.9686 0.2421 -0.0566
vn -0.9680 0.2451 -0.0538
vn -0.9533 0.3021 0.0000
vn 0.0121 0.1248 -0.9921
vn 0.0218 0.1338 -0.9908
vn 0.0409 0.1515 -0.9876
vn 0.0994 0.9743 -0.2019
vn 0.9521 0.2371 -0.1933
vn -0.1832 0.0598 0.9813
vn -0.9766 0.1858 -0.1078
vn 0.0000 0.1135 -0.9935
s 1
f 1/1/1 2/2/1 3/3/1
f 4/4/2 5/5/3 6/6/4
f 6/6/5 1/7/6 3/8/7
f 5/9/8 7/10/9 1/11/10
f 7/12/11 4/13/12 2/14/13
f 3/3/14 4/15/15 6/16/16
f 1/1/1 7/10/1 2/2/1
f 4/4/2 8/17/17 5/5/3
f 6/6/5 5/18/18 1/7/6
f 5/9/8 8/19/19 7/10/9
f 7/12/11 8/17/20 4/13/12
f 3/3/14 2/20/21 4/15/15
